<svg width="52" height="12" viewBox="0 0 52 12" fill="none" xmlns="http://www.w3.org/2000/svg">
<g clip-path="url(#clip0_260_608)">
<path d="M1.01564 11.1044V4.07039H3.09043V11.1044H1.01564ZM2.05303 2.93447C1.71771 2.93447 1.44003 2.83252 1.21997 2.62864C0.999919 2.41505 0.889893 2.15291 0.889893 1.84223C0.889893 1.54126 0.999919 1.28398 1.21997 1.07039C1.44003 0.856796 1.71771 0.75 2.05303 0.75C2.39883 0.75 2.67652 0.856796 2.88609 1.07039C3.10615 1.28398 3.21618 1.54126 3.21618 1.84223C3.21618 2.15291 3.10615 2.41505 2.88609 2.62864C2.67652 2.83252 2.39883 2.93447 2.05303 2.93447Z" fill="url(#paint0_linear_260_608)"/>
<path d="M10.1378 11.1044V7.07035C10.1378 6.65287 9.99636 6.31309 9.71341 6.05096C9.43051 5.78882 9.06373 5.65775 8.61312 5.65775C8.31974 5.65775 8.05776 5.716 7.82724 5.83251C7.59671 5.94901 7.41335 6.11407 7.27709 6.32764C7.15137 6.54126 7.08851 6.7888 7.08851 7.07035L6.28687 6.69172C6.28687 6.13832 6.41259 5.65775 6.66409 5.24999C6.92607 4.83251 7.28236 4.50727 7.73292 4.27426C8.19402 4.04125 8.71271 3.92474 9.28904 3.92474C9.8444 3.92474 10.3421 4.05581 10.7822 4.31795C11.2224 4.57037 11.5681 4.90532 11.8196 5.3228C12.0711 5.73057 12.1969 6.17229 12.1969 6.64804V11.1044H10.1378ZM5.02942 11.1044V4.07037H7.08851V11.1044H5.02942Z" fill="url(#paint1_linear_260_608)"/>
<path d="M14.9943 11.1043V1.14319H17.0533V11.1043H14.9943ZM13.2181 5.74513V4.07037H18.8295V5.74513H13.2181Z" fill="url(#paint2_linear_260_608)"/>
<path d="M20.1024 11.1044V4.07037H22.1615V11.1044H20.1024ZM22.1615 7.21599L21.3599 6.72086C21.4542 5.85678 21.7266 5.17717 22.1772 4.68202C22.6278 4.17717 23.2775 3.92474 24.1263 3.92474C24.493 3.92474 24.8231 3.98299 25.1165 4.0995C25.4099 4.2063 25.6771 4.38591 25.9181 4.63833L24.6292 6.00728C24.514 5.89076 24.3725 5.80338 24.2048 5.74513C24.0476 5.68688 23.8643 5.65775 23.6547 5.65775C23.2146 5.65775 22.8531 5.78882 22.5701 6.05096C22.2977 6.30338 22.1615 6.69172 22.1615 7.21599Z" fill="url(#paint3_linear_260_608)"/>
<path d="M29.7164 11.25C29.0248 11.25 28.4014 11.0898 27.846 10.7694C27.2906 10.449 26.8558 10.0121 26.5414 9.45874C26.2271 8.90533 26.0698 8.28394 26.0698 7.59462C26.0698 6.89563 26.2271 6.26941 26.5414 5.716C26.8558 5.1626 27.2906 4.72572 27.846 4.40532C28.4014 4.08494 29.0248 3.92474 29.7164 3.92474C30.2613 3.92474 30.7486 4.02668 31.1782 4.23057C31.6078 4.43445 31.9484 4.72086 32.1999 5.08979C32.4619 5.44901 32.6033 5.85678 32.6243 6.31309V8.84706C32.6033 9.3131 32.4619 9.7257 32.1999 10.085C31.9484 10.4442 31.6078 10.7305 31.1782 10.9442C30.7486 11.148 30.2613 11.25 29.7164 11.25ZM30.0937 9.48782C30.67 9.48782 31.1363 9.3131 31.4926 8.96356C31.8489 8.60435 32.027 8.14319 32.027 7.58008C32.027 7.21116 31.9432 6.88592 31.7755 6.60436C31.6183 6.31309 31.3931 6.08981 31.0996 5.93445C30.8167 5.7694 30.4814 5.68688 30.0937 5.68688C29.7164 5.68688 29.3811 5.7694 29.0877 5.93445C28.8048 6.08981 28.5795 6.31309 28.4118 6.60436C28.2546 6.88592 28.1761 7.21116 28.1761 7.58008C28.1761 7.95871 28.2546 8.29366 28.4118 8.58493C28.5795 8.86648 28.8048 9.08977 29.0877 9.25483C29.3811 9.41017 29.7164 9.48782 30.0937 9.48782ZM31.917 11.1043V9.21115L32.2471 7.49272L31.917 5.80338V4.07037H33.9603V11.1043H31.917Z" fill="url(#paint4_linear_260_608)"/>
<path d="M39.4806 11.25C38.7052 11.25 38.0083 11.0898 37.3901 10.7694C36.7719 10.449 36.2846 10.0122 35.9283 9.45877C35.5721 8.90537 35.3939 8.28398 35.3939 7.59466C35.3939 6.89567 35.5721 6.26945 35.9283 5.71604C36.2846 5.16264 36.7719 4.72575 37.3901 4.40536C38.0188 4.07527 38.7157 3.91022 39.4806 3.91022C40.0779 3.91022 40.6281 4.01216 41.131 4.21604C41.634 4.41992 42.0689 4.71119 42.4356 5.08983L41.1153 6.32767C40.9162 6.12382 40.6752 5.96847 40.3923 5.86167C40.1198 5.75488 39.8159 5.70148 39.4806 5.70148C39.1034 5.70148 38.7628 5.784 38.4589 5.94905C38.1656 6.10439 37.9298 6.32284 37.7516 6.6044C37.584 6.87625 37.5001 7.20148 37.5001 7.58011C37.5001 7.94903 37.584 8.27915 37.7516 8.57042C37.9298 8.85198 38.1656 9.07526 38.4589 9.24032C38.7628 9.39567 39.1034 9.47332 39.4806 9.47332C39.8264 9.47332 40.1356 9.41992 40.408 9.31314C40.6909 9.19664 40.9319 9.03158 41.131 8.81796L42.4671 10.0559C42.0793 10.4442 41.634 10.7403 41.131 10.9442C40.6281 11.1481 40.0779 11.25 39.4806 11.25Z" fill="url(#paint5_linear_260_608)"/>
<path d="M44.7412 11.1043V1.14319H46.8003V11.1043H44.7412ZM42.9651 5.74513V4.07037H48.5764V5.74513H42.9651Z" fill="url(#paint6_linear_260_608)"/>
<path d="M50.7269 11.25C50.3496 11.25 50.0405 11.1335 49.7995 10.9005C49.5585 10.6674 49.438 10.3811 49.438 10.0412C49.438 9.70145 49.5585 9.41506 49.7995 9.18201C50.0405 8.94902 50.3496 8.83252 50.7269 8.83252C51.0936 8.83252 51.3975 8.94902 51.6385 9.18201C51.8795 9.41506 52 9.70145 52 10.0412C52 10.3811 51.8795 10.6674 51.6385 10.9005C51.3975 11.1335 51.0936 11.25 50.7269 11.25Z" fill="url(#paint7_linear_260_608)"/>
</g>
<defs>
<linearGradient id="paint0_linear_260_608" x1="26.4449" y1="0.75" x2="26.4449" y2="12.3583" gradientUnits="userSpaceOnUse">
<stop stop-color="white"/>
<stop offset="0.340257" stop-color="#E1E1E1"/>
<stop offset="0.592938" stop-color="#D2D2D2"/>
<stop offset="1" stop-color="#AEAEAE"/>
</linearGradient>
<linearGradient id="paint1_linear_260_608" x1="26.4449" y1="0.749984" x2="26.4449" y2="12.3583" gradientUnits="userSpaceOnUse">
<stop stop-color="white"/>
<stop offset="0.340257" stop-color="#E1E1E1"/>
<stop offset="0.592938" stop-color="#D2D2D2"/>
<stop offset="1" stop-color="#AEAEAE"/>
</linearGradient>
<linearGradient id="paint2_linear_260_608" x1="26.4449" y1="0.749985" x2="26.4449" y2="12.3583" gradientUnits="userSpaceOnUse">
<stop stop-color="white"/>
<stop offset="0.340257" stop-color="#E1E1E1"/>
<stop offset="0.592938" stop-color="#D2D2D2"/>
<stop offset="1" stop-color="#AEAEAE"/>
</linearGradient>
<linearGradient id="paint3_linear_260_608" x1="26.4449" y1="0.749984" x2="26.4449" y2="12.3583" gradientUnits="userSpaceOnUse">
<stop stop-color="white"/>
<stop offset="0.340257" stop-color="#E1E1E1"/>
<stop offset="0.592938" stop-color="#D2D2D2"/>
<stop offset="1" stop-color="#AEAEAE"/>
</linearGradient>
<linearGradient id="paint4_linear_260_608" x1="26.4449" y1="0.749985" x2="26.4449" y2="12.3583" gradientUnits="userSpaceOnUse">
<stop stop-color="white"/>
<stop offset="0.340257" stop-color="#E1E1E1"/>
<stop offset="0.592938" stop-color="#D2D2D2"/>
<stop offset="1" stop-color="#AEAEAE"/>
</linearGradient>
<linearGradient id="paint5_linear_260_608" x1="26.4449" y1="0.750022" x2="26.4449" y2="12.3583" gradientUnits="userSpaceOnUse">
<stop stop-color="white"/>
<stop offset="0.340257" stop-color="#E1E1E1"/>
<stop offset="0.592938" stop-color="#D2D2D2"/>
<stop offset="1" stop-color="#AEAEAE"/>
</linearGradient>
<linearGradient id="paint6_linear_260_608" x1="26.4449" y1="0.749985" x2="26.4449" y2="12.3583" gradientUnits="userSpaceOnUse">
<stop stop-color="white"/>
<stop offset="0.340257" stop-color="#E1E1E1"/>
<stop offset="0.592938" stop-color="#D2D2D2"/>
<stop offset="1" stop-color="#AEAEAE"/>
</linearGradient>
<linearGradient id="paint7_linear_260_608" x1="26.445" y1="0.749986" x2="26.445" y2="12.3583" gradientUnits="userSpaceOnUse">
<stop stop-color="white"/>
<stop offset="0.340257" stop-color="#E1E1E1"/>
<stop offset="0.592938" stop-color="#D2D2D2"/>
<stop offset="1" stop-color="#AEAEAE"/>
</linearGradient>
<clipPath id="clip0_260_608">
<rect width="51.1101" height="10.5" fill="white" transform="translate(0.889893 0.75)"/>
</clipPath>
</defs>
</svg>
