<svg width="212" height="40" viewBox="0 0 212 40" fill="none" xmlns="http://www.w3.org/2000/svg">
<path d="M20.0635 0L0 13.3326L10.0311 20.0003L20.0635 13.3326L30.0945 20.0003L40.1256 13.3326L20.0635 0Z" fill="url(#paint0_linear_135_1338)"/>
<path d="M40.1256 13.3323L20.0635 26.6663L0 13.3323V26.6663L20.0635 40.0002L40.1256 26.6663V13.3323Z" fill="url(#paint1_linear_135_1338)"/>
<path d="M108.127 9.79321H101.5C97.2759 9.79321 93.8528 13.3541 93.8528 17.7475V22.2555C93.8528 26.6489 97.2759 30.2098 101.5 30.2098H108.127C112.35 30.2098 115.774 26.6489 115.774 22.2555V17.7475C115.774 13.3541 112.35 9.79321 108.127 9.79321ZM110.676 22.2555C110.676 23.7204 109.534 24.9069 108.127 24.9069H101.5C100.091 24.9069 98.9505 23.719 98.9505 22.2555V17.7475C98.9505 16.2825 100.093 15.0961 101.5 15.0961H108.127C109.535 15.0961 110.676 16.2825 110.676 17.7475V22.2555Z" fill="white"/>
<path d="M138.017 10.0591H120.175C119.12 10.0591 118.264 10.9496 118.264 12.0476V29.9448H123.361V15.3619H128.459V29.9448H133.557V15.3619H136.743C137.799 15.3619 138.654 16.2525 138.654 17.3505V29.9448H143.753V16.0248C143.753 12.7293 141.184 10.0591 138.017 10.0591Z" fill="white"/>
<path d="M73.7131 16.0248V29.9448H78.8108V17.3505C78.8108 16.2525 79.6668 15.3619 80.7223 15.3619H92.1924V10.0591H79.448C76.2799 10.0591 73.7131 12.7293 73.7131 16.0248Z" fill="white"/>
<path d="M160.831 10.0591H147.067V15.3619H159.557C160.612 15.3619 161.468 16.2525 161.468 17.3505V18.0134H151.782C148.614 18.0134 146.047 20.6837 146.047 23.9791C146.047 27.2745 148.615 29.9448 151.782 29.9448H164.654C165.71 29.9448 166.566 29.0542 166.566 27.9562V16.0248C166.566 12.7293 163.999 10.0591 160.831 10.0591ZM161.356 24.7086H151.384C150.997 24.7086 150.683 24.3823 150.683 23.9791C150.683 23.5758 150.997 23.2495 151.384 23.2495H161.356C161.743 23.2495 162.057 23.5758 162.057 23.9791C162.057 24.3823 161.743 24.7086 161.356 24.7086Z" fill="white"/>
<path d="M71.9263 10.191H65.4786L58.5486 17.9916V10.0591H53.324V29.9448H58.5486V22.0064L65.7393 29.9448H72.0586L63.1848 20.1339L71.9263 10.191Z" fill="white"/>
<path d="M175.211 9.72339H191.481V13.5718H185.59V29.7682H181.102V13.5718H175.211V9.72339Z" fill="white"/>
<path d="M202.342 24.5078H202.515L206.897 9.72339H212L205.441 29.7682H199.416L192.871 9.72339H197.96L202.342 24.5078Z" fill="white"/>
<defs>
<linearGradient id="paint0_linear_135_1338" x1="20.0628" y1="0" x2="20.0628" y2="20.0003" gradientUnits="userSpaceOnUse">
<stop stop-color="white"/>
<stop offset="1" stop-color="#E6E6E6"/>
</linearGradient>
<linearGradient id="paint1_linear_135_1338" x1="20.0628" y1="13.3323" x2="20.0628" y2="40.0002" gradientUnits="userSpaceOnUse">
<stop stop-color="white"/>
<stop offset="1" stop-color="#E6E6E6"/>
</linearGradient>
</defs>
</svg>
