<svg width="186" height="64" viewBox="0 0 186 64" fill="none" xmlns="http://www.w3.org/2000/svg">
<rect width="186" height="64" fill="#5D4864"/>
<rect width="186" height="64" fill="url(#paint0_radial_135_1330)" fill-opacity="0.4"/>
<rect width="186" height="22" fill="#972310"/>
<rect width="186" height="22" fill="url(#paint1_radial_135_1330)" fill-opacity="0.32"/>
<rect width="4" height="64" fill="url(#paint2_linear_135_1330)"/>
<rect x="182" width="4" height="64" fill="url(#paint3_linear_135_1330)"/>
<path d="M35.791 6.51562H38.9668C39.5996 6.51562 40.1406 6.63477 40.5898 6.87305C41.043 7.11133 41.3848 7.44336 41.6152 7.86914C41.8457 8.29102 41.9609 8.77734 41.9609 9.32812C41.9609 9.875 41.8438 10.3594 41.6094 10.7812C41.3789 11.1992 41.0371 11.5293 40.584 11.7715C40.1309 12.0098 39.584 12.1289 38.9434 12.1289H36.834V10.8691H38.7383C39.1133 10.8691 39.4238 10.8047 39.6699 10.6758C39.9199 10.543 40.1035 10.3633 40.2207 10.1367C40.3379 9.90625 40.3984 9.63672 40.4023 9.32812C40.3984 9.01562 40.3379 8.74609 40.2207 8.51953C40.1035 8.28906 39.9199 8.11133 39.6699 7.98633C39.4199 7.85742 39.1074 7.79297 38.7324 7.79297H37.3145V15H35.791V6.51562ZM43.1328 8.63672H44.5742V9.69727H44.6445C44.7539 9.33398 44.9492 9.05078 45.2305 8.84766C45.5156 8.64453 45.8418 8.54297 46.209 8.54297C46.4785 8.54688 46.6602 8.56055 46.7539 8.58398V9.96094C46.6719 9.93359 46.5645 9.91211 46.4316 9.89648C46.3027 9.88086 46.1777 9.87305 46.0566 9.87305C45.7832 9.87305 45.5371 9.93164 45.3184 10.0488C45.1035 10.166 44.9336 10.3301 44.8086 10.541C44.6836 10.752 44.6211 10.9902 44.6211 11.2559V15H43.1328V8.63672ZM50.2168 15.123C49.6035 15.123 49.0664 14.9863 48.6055 14.7129C48.1445 14.4395 47.7891 14.0566 47.5391 13.5645C47.2891 13.0684 47.1641 12.4941 47.1641 11.8418C47.1641 11.1895 47.2891 10.6152 47.5391 10.1191C47.7891 9.62305 48.1445 9.23828 48.6055 8.96484C49.0664 8.69141 49.6035 8.55469 50.2168 8.55469C50.8301 8.55469 51.3672 8.69141 51.8281 8.96484C52.2891 9.23828 52.6426 9.62305 52.8887 10.1191C53.1348 10.6152 53.2578 11.1895 53.2578 11.8418C53.2578 12.4941 53.1348 13.0684 52.8887 13.5645C52.6426 14.0566 52.2891 14.4395 51.8281 14.7129C51.3672 14.9863 50.8301 15.123 50.2168 15.123ZM50.2285 13.9336C50.5527 13.9336 50.8301 13.8418 51.0605 13.6582C51.291 13.4746 51.4629 13.2246 51.5762 12.9082C51.6895 12.5918 51.7461 12.2344 51.7461 11.8359C51.7461 11.4375 51.6895 11.0801 51.5762 10.7637C51.4629 10.4473 51.291 10.1973 51.0605 10.0137C50.8301 9.82617 50.5527 9.73242 50.2285 9.73242C49.8926 9.73242 49.6074 9.82617 49.373 10.0137C49.1387 10.1973 48.9629 10.4473 48.8457 10.7637C48.7324 11.0801 48.6738 11.4375 48.6699 11.8359C48.6738 12.2344 48.7324 12.5918 48.8457 12.9082C48.9629 13.2246 49.1387 13.4746 49.373 13.6582C49.6074 13.8418 49.8926 13.9336 50.2285 13.9336ZM63.0371 9.22266C62.9434 8.92188 62.8027 8.66211 62.6152 8.44336C62.4316 8.22461 62.2051 8.05859 61.9355 7.94531C61.6699 7.82812 61.3691 7.76953 61.0332 7.76953C60.5723 7.76953 60.1641 7.88672 59.8086 8.12109C59.4531 8.35156 59.1738 8.69141 58.9707 9.14062C58.7676 9.58594 58.666 10.123 58.666 10.752C58.666 11.3848 58.7656 11.9238 58.9648 12.3691C59.168 12.8145 59.4492 13.1562 59.8086 13.3945C60.168 13.6289 60.5879 13.7461 61.0684 13.7461C61.498 13.7461 61.8711 13.6641 62.1875 13.5C62.5078 13.332 62.752 13.0957 62.9199 12.791C63.0918 12.4824 63.1797 12.1211 63.1836 11.707L63.5293 11.7598H61.2207V10.5586H64.6602V11.5781C64.6602 12.293 64.5078 12.918 64.2031 13.4531C63.9023 13.9844 63.4785 14.3945 62.9316 14.6836C62.3848 14.9727 61.7617 15.1172 61.0625 15.1172C60.2812 15.1172 59.5938 14.9414 59 14.5898C58.4102 14.2344 57.9512 13.7285 57.623 13.0723C57.2988 12.416 57.1367 11.6465 57.1367 10.7637C57.1367 9.87305 57.3027 9.09961 57.6348 8.44336C57.9707 7.7832 58.4316 7.27734 59.0176 6.92578C59.6035 6.57422 60.2676 6.39844 61.0098 6.39844C61.627 6.39844 62.1914 6.51758 62.7031 6.75586C63.2188 6.99023 63.6406 7.32227 63.9688 7.75195C64.3008 8.18164 64.5098 8.67188 64.5957 9.22266H63.0371ZM69.7695 12.1816C69.6211 12.1934 69.5059 12.2031 69.4238 12.2109C69.3457 12.2148 69.2285 12.2227 69.0723 12.2344C68.7832 12.2461 68.5195 12.2617 68.2812 12.2812C67.9141 12.3125 67.6289 12.4043 67.4258 12.5566C67.2227 12.709 67.1211 12.9219 67.1211 13.1953C67.1211 13.375 67.168 13.5273 67.2617 13.6523C67.3555 13.7773 67.4824 13.873 67.6426 13.9395C67.8027 14.002 67.9883 14.0312 68.1992 14.0273C68.4922 14.0273 68.752 13.9688 68.9785 13.8516C69.2051 13.7344 69.3789 13.5762 69.5 13.377C69.625 13.1738 69.6875 12.9531 69.6875 12.7148L69.6758 10.6816C69.6758 10.4746 69.6328 10.2969 69.5469 10.1484C69.4609 9.99609 69.3301 9.88281 69.1543 9.80859C68.9824 9.73438 68.7715 9.69727 68.5215 9.69727C68.1973 9.69727 67.9336 9.76562 67.7305 9.90234C67.5273 10.0352 67.3965 10.2168 67.3379 10.4473H65.8848C65.9238 10.084 66.0566 9.75977 66.2832 9.47461C66.5098 9.18555 66.8164 8.96094 67.2031 8.80078C67.5938 8.63672 68.0469 8.55469 68.5625 8.55469C69.0156 8.55469 69.4375 8.62305 69.8281 8.75977C70.2188 8.89648 70.5371 9.12891 70.7832 9.45703C71.0332 9.78516 71.1602 10.2129 71.1641 10.7402V15H69.7344V14.1211H69.6875C69.5352 14.418 69.3008 14.6602 68.9844 14.8477C68.6719 15.0352 68.2812 15.1289 67.8125 15.1289C67.4023 15.1289 67.0371 15.0566 66.7168 14.9121C66.3965 14.7637 66.1426 14.5449 65.9551 14.2559C65.7715 13.9668 65.6797 13.6191 65.6797 13.2129C65.6797 12.5566 65.9004 12.082 66.3418 11.7891C66.7832 11.4961 67.3535 11.3262 68.0527 11.2793C68.2402 11.2676 68.4473 11.2559 68.6738 11.2441C68.9043 11.2285 69.127 11.2168 69.3418 11.209C69.4785 11.2051 69.6172 11.2012 69.7578 11.1973L69.7695 12.1816ZM72.582 8.63672H74.0059V9.71484H74.0762C74.2129 9.35156 74.4336 9.06836 74.7383 8.86523C75.043 8.6582 75.4082 8.55469 75.834 8.55469C76.1152 8.55469 76.3711 8.60156 76.6016 8.69531C76.832 8.78516 77.0273 8.91797 77.1875 9.09375C77.3477 9.26562 77.4688 9.47266 77.5508 9.71484H77.6152C77.709 9.48047 77.8477 9.27539 78.0312 9.09961C78.2148 8.92383 78.4336 8.78906 78.6875 8.69531C78.9453 8.60156 79.2266 8.55469 79.5312 8.55469C79.9219 8.55469 80.2676 8.63867 80.5684 8.80664C80.8691 8.9707 81.1016 9.2168 81.2656 9.54492C81.4336 9.87305 81.5176 10.2695 81.5176 10.7344V15H80.0234V10.957C80.0234 10.5781 79.9219 10.293 79.7188 10.1016C79.5195 9.90625 79.2559 9.80859 78.9277 9.80859C78.6895 9.80859 78.4844 9.86133 78.3125 9.9668C78.1406 10.0684 78.0078 10.2109 77.9141 10.3945C77.8242 10.5742 77.7773 10.7832 77.7734 11.0215V15H76.3145V10.8926C76.3145 10.6777 76.2695 10.4883 76.1797 10.3242C76.0938 10.1562 75.9688 10.0293 75.8047 9.94336C75.6445 9.85352 75.459 9.80859 75.248 9.80859C75.0293 9.80859 74.8301 9.86328 74.6504 9.97266C74.4746 10.082 74.334 10.2383 74.2285 10.4414C74.123 10.6406 74.0703 10.8691 74.0703 11.127V15H72.582V8.63672ZM85.7656 15.123C85.1328 15.123 84.584 14.9902 84.1191 14.7246C83.6543 14.459 83.2969 14.0801 83.0469 13.5879C82.7969 13.0957 82.6719 12.5195 82.6719 11.8594C82.6719 11.207 82.7969 10.6309 83.0469 10.1309C83.3008 9.62695 83.6543 9.23828 84.1074 8.96484C84.5605 8.69141 85.0879 8.55469 85.6895 8.55469C86.2285 8.55469 86.7168 8.66992 87.1543 8.90039C87.5918 9.13086 87.9395 9.48633 88.1973 9.9668C88.459 10.4473 88.5898 11.0449 88.5898 11.7598V12.2285H83.3809V11.2148H87.1602C87.1562 10.9297 87.0938 10.6738 86.9727 10.4473C86.8555 10.2168 86.6855 10.0371 86.4629 9.9082C86.2441 9.7793 85.9922 9.71484 85.707 9.71484C85.4023 9.71484 85.1328 9.78711 84.8984 9.93164C84.6641 10.0762 84.4805 10.2715 84.3477 10.5176C84.2188 10.7598 84.1523 11.0254 84.1484 11.3145V12.1816C84.1484 12.5527 84.2168 12.8711 84.3535 13.1367C84.4902 13.4023 84.6797 13.6074 84.9219 13.752C85.168 13.8926 85.4551 13.9629 85.7832 13.9629C85.9941 13.9629 86.1836 13.9336 86.3516 13.875C86.5234 13.8164 86.668 13.7383 86.7852 13.6406C86.9062 13.543 87 13.4297 87.0664 13.3008H88.5312C88.4414 13.668 88.2715 13.9902 88.0215 14.2676C87.7754 14.541 87.459 14.752 87.0723 14.9004C86.6895 15.0488 86.2539 15.123 85.7656 15.123ZM89.7617 8.63672H91.2031V9.69727H91.2734C91.3828 9.33398 91.5781 9.05078 91.8594 8.84766C92.1445 8.64453 92.4707 8.54297 92.8379 8.54297C93.1074 8.54688 93.2891 8.56055 93.3828 8.58398V9.96094C93.3008 9.93359 93.1934 9.91211 93.0605 9.89648C92.9316 9.88086 92.8066 9.87305 92.6855 9.87305C92.4121 9.87305 92.166 9.93164 91.9473 10.0488C91.7324 10.166 91.5625 10.3301 91.4375 10.541C91.3125 10.752 91.25 10.9902 91.25 11.2559V15H89.7617V8.63672ZM97.8828 10.4473C97.832 10.2051 97.709 10.0156 97.5137 9.87891C97.3223 9.73828 97.0703 9.66602 96.7578 9.66211C96.5469 9.66211 96.3574 9.69531 96.1895 9.76172C96.0215 9.82422 95.8887 9.91406 95.791 10.0312C95.6973 10.1445 95.6504 10.2734 95.6504 10.418C95.6504 10.5859 95.7227 10.7305 95.8672 10.8516C96.0117 10.9727 96.2422 11.0684 96.5586 11.1387L97.6426 11.373C98.2402 11.502 98.6855 11.709 98.9785 11.9941C99.2754 12.2793 99.4258 12.6465 99.4297 13.0957C99.4258 13.4941 99.3125 13.8457 99.0898 14.1504C98.8711 14.4551 98.5566 14.6934 98.1465 14.8652C97.7363 15.0371 97.2598 15.123 96.7168 15.123C96.1816 15.123 95.7188 15.0469 95.3281 14.8945C94.9375 14.7422 94.627 14.5215 94.3965 14.2324C94.1699 13.9434 94.0312 13.5957 93.9805 13.1895H95.498C95.5449 13.459 95.6699 13.6621 95.873 13.7988C96.0801 13.9316 96.3594 13.9961 96.7109 13.9922C96.9492 13.9961 97.1582 13.9668 97.3379 13.9043C97.5215 13.8418 97.6602 13.7539 97.7539 13.6406C97.8516 13.5273 97.9004 13.3906 97.9004 13.2305C97.9004 13.0469 97.8262 12.8945 97.6777 12.7734C97.5293 12.6523 97.2969 12.5566 96.9805 12.4863L95.9551 12.2754C95.3691 12.1543 94.9238 11.9434 94.6191 11.6426C94.3145 11.3379 94.1621 10.959 94.1621 10.5059C94.1621 10.1152 94.2676 9.77344 94.4785 9.48047C94.6934 9.18359 94.9941 8.95508 95.3809 8.79492C95.7715 8.63477 96.2246 8.55469 96.7402 8.55469C97.2363 8.55469 97.6699 8.63281 98.041 8.78906C98.416 8.94141 98.709 9.16016 98.9199 9.44531C99.1348 9.73047 99.2598 10.0645 99.2949 10.4473H97.8828ZM108.107 8.8418C108.084 8.60352 108.004 8.39648 107.867 8.2207C107.734 8.04492 107.551 7.91406 107.316 7.82812C107.082 7.73828 106.812 7.69336 106.508 7.69336C106.191 7.69336 105.918 7.74023 105.688 7.83398C105.457 7.92773 105.277 8.06055 105.148 8.23242C105.023 8.40039 104.961 8.5918 104.961 8.80664C104.961 9.12695 105.094 9.37695 105.359 9.55664C105.629 9.73242 105.98 9.87305 106.414 9.97852L107.205 10.1777C107.955 10.3535 108.557 10.6328 109.01 11.0156C109.467 11.3984 109.697 11.9316 109.701 12.6152C109.701 13.1152 109.574 13.5547 109.32 13.9336C109.066 14.3125 108.697 14.6074 108.213 14.8184C107.729 15.0254 107.15 15.1289 106.479 15.1289C105.822 15.1328 105.252 15.0312 104.768 14.8242C104.283 14.6133 103.904 14.3125 103.631 13.9219C103.361 13.5273 103.215 13.0527 103.191 12.498H104.691C104.711 12.7871 104.801 13.0312 104.961 13.2305C105.121 13.4297 105.33 13.5781 105.588 13.6758C105.85 13.7734 106.143 13.8223 106.467 13.8223C106.803 13.8223 107.1 13.7715 107.357 13.6699C107.615 13.5684 107.814 13.4258 107.955 13.2422C108.096 13.0547 108.168 12.8418 108.172 12.6035C108.168 12.3926 108.105 12.2129 107.984 12.0645C107.867 11.916 107.697 11.7949 107.475 11.7012C107.256 11.6035 106.979 11.5117 106.643 11.4258L105.676 11.1797C104.949 10.9883 104.391 10.707 104 10.3359C103.609 9.96484 103.416 9.48438 103.42 8.89453C103.42 8.40234 103.553 7.9668 103.818 7.58789C104.088 7.20508 104.459 6.91211 104.932 6.70898C105.404 6.50195 105.938 6.39844 106.531 6.39844C107.121 6.39844 107.646 6.50195 108.107 6.70898C108.568 6.91602 108.928 7.20508 109.186 7.57617C109.443 7.94727 109.576 8.36914 109.584 8.8418H108.107ZM113.715 15.123C113.082 15.123 112.533 14.9902 112.068 14.7246C111.604 14.459 111.246 14.0801 110.996 13.5879C110.746 13.0957 110.621 12.5195 110.621 11.8594C110.621 11.207 110.746 10.6309 110.996 10.1309C111.25 9.62695 111.604 9.23828 112.057 8.96484C112.51 8.69141 113.037 8.55469 113.639 8.55469C114.178 8.55469 114.666 8.66992 115.104 8.90039C115.541 9.13086 115.889 9.48633 116.146 9.9668C116.408 10.4473 116.539 11.0449 116.539 11.7598V12.2285H111.33V11.2148H115.109C115.105 10.9297 115.043 10.6738 114.922 10.4473C114.805 10.2168 114.635 10.0371 114.412 9.9082C114.193 9.7793 113.941 9.71484 113.656 9.71484C113.352 9.71484 113.082 9.78711 112.848 9.93164C112.613 10.0762 112.43 10.2715 112.297 10.5176C112.168 10.7598 112.102 11.0254 112.098 11.3145V12.1816C112.098 12.5527 112.166 12.8711 112.303 13.1367C112.439 13.4023 112.629 13.6074 112.871 13.752C113.117 13.8926 113.404 13.9629 113.732 13.9629C113.943 13.9629 114.133 13.9336 114.301 13.875C114.473 13.8164 114.617 13.7383 114.734 13.6406C114.855 13.543 114.949 13.4297 115.016 13.3008H116.48C116.391 13.668 116.221 13.9902 115.971 14.2676C115.725 14.541 115.408 14.752 115.021 14.9004C114.639 15.0488 114.203 15.123 113.715 15.123ZM121.496 12.1816C121.348 12.1934 121.232 12.2031 121.15 12.2109C121.072 12.2148 120.955 12.2227 120.799 12.2344C120.51 12.2461 120.246 12.2617 120.008 12.2812C119.641 12.3125 119.355 12.4043 119.152 12.5566C118.949 12.709 118.848 12.9219 118.848 13.1953C118.848 13.375 118.895 13.5273 118.988 13.6523C119.082 13.7773 119.209 13.873 119.369 13.9395C119.529 14.002 119.715 14.0312 119.926 14.0273C120.219 14.0273 120.479 13.9688 120.705 13.8516C120.932 13.7344 121.105 13.5762 121.227 13.377C121.352 13.1738 121.414 12.9531 121.414 12.7148L121.402 10.6816C121.402 10.4746 121.359 10.2969 121.273 10.1484C121.188 9.99609 121.057 9.88281 120.881 9.80859C120.709 9.73438 120.498 9.69727 120.248 9.69727C119.924 9.69727 119.66 9.76562 119.457 9.90234C119.254 10.0352 119.123 10.2168 119.064 10.4473H117.611C117.65 10.084 117.783 9.75977 118.01 9.47461C118.236 9.18555 118.543 8.96094 118.93 8.80078C119.32 8.63672 119.773 8.55469 120.289 8.55469C120.742 8.55469 121.164 8.62305 121.555 8.75977C121.945 8.89648 122.264 9.12891 122.51 9.45703C122.76 9.78516 122.887 10.2129 122.891 10.7402V15H121.461V14.1211H121.414C121.262 14.418 121.027 14.6602 120.711 14.8477C120.398 15.0352 120.008 15.1289 119.539 15.1289C119.129 15.1289 118.764 15.0566 118.443 14.9121C118.123 14.7637 117.869 14.5449 117.682 14.2559C117.498 13.9668 117.406 13.6191 117.406 13.2129C117.406 12.5566 117.627 12.082 118.068 11.7891C118.51 11.4961 119.08 11.3262 119.779 11.2793C119.967 11.2676 120.174 11.2559 120.4 11.2441C120.631 11.2285 120.854 11.2168 121.068 11.209C121.205 11.2051 121.344 11.2012 121.484 11.1973L121.496 12.1816ZM127.906 10.4473C127.855 10.2051 127.732 10.0156 127.537 9.87891C127.346 9.73828 127.094 9.66602 126.781 9.66211C126.57 9.66211 126.381 9.69531 126.213 9.76172C126.045 9.82422 125.912 9.91406 125.814 10.0312C125.721 10.1445 125.674 10.2734 125.674 10.418C125.674 10.5859 125.746 10.7305 125.891 10.8516C126.035 10.9727 126.266 11.0684 126.582 11.1387L127.666 11.373C128.264 11.502 128.709 11.709 129.002 11.9941C129.299 12.2793 129.449 12.6465 129.453 13.0957C129.449 13.4941 129.336 13.8457 129.113 14.1504C128.895 14.4551 128.58 14.6934 128.17 14.8652C127.76 15.0371 127.283 15.123 126.74 15.123C126.205 15.123 125.742 15.0469 125.352 14.8945C124.961 14.7422 124.65 14.5215 124.42 14.2324C124.193 13.9434 124.055 13.5957 124.004 13.1895H125.521C125.568 13.459 125.693 13.6621 125.896 13.7988C126.104 13.9316 126.383 13.9961 126.734 13.9922C126.973 13.9961 127.182 13.9668 127.361 13.9043C127.545 13.8418 127.684 13.7539 127.777 13.6406C127.875 13.5273 127.924 13.3906 127.924 13.2305C127.924 13.0469 127.85 12.8945 127.701 12.7734C127.553 12.6523 127.32 12.5566 127.004 12.4863L125.979 12.2754C125.393 12.1543 124.947 11.9434 124.643 11.6426C124.338 11.3379 124.186 10.959 124.186 10.5059C124.186 10.1152 124.291 9.77344 124.502 9.48047C124.717 9.18359 125.018 8.95508 125.404 8.79492C125.795 8.63477 126.248 8.55469 126.764 8.55469C127.26 8.55469 127.693 8.63281 128.064 8.78906C128.439 8.94141 128.732 9.16016 128.943 9.44531C129.158 9.73047 129.283 10.0645 129.318 10.4473H127.906ZM133.373 15.123C132.76 15.123 132.223 14.9863 131.762 14.7129C131.301 14.4395 130.945 14.0566 130.695 13.5645C130.445 13.0684 130.32 12.4941 130.32 11.8418C130.32 11.1895 130.445 10.6152 130.695 10.1191C130.945 9.62305 131.301 9.23828 131.762 8.96484C132.223 8.69141 132.76 8.55469 133.373 8.55469C133.986 8.55469 134.523 8.69141 134.984 8.96484C135.445 9.23828 135.799 9.62305 136.045 10.1191C136.291 10.6152 136.414 11.1895 136.414 11.8418C136.414 12.4941 136.291 13.0684 136.045 13.5645C135.799 14.0566 135.445 14.4395 134.984 14.7129C134.523 14.9863 133.986 15.123 133.373 15.123ZM133.385 13.9336C133.709 13.9336 133.986 13.8418 134.217 13.6582C134.447 13.4746 134.619 13.2246 134.732 12.9082C134.846 12.5918 134.902 12.2344 134.902 11.8359C134.902 11.4375 134.846 11.0801 134.732 10.7637C134.619 10.4473 134.447 10.1973 134.217 10.0137C133.986 9.82617 133.709 9.73242 133.385 9.73242C133.049 9.73242 132.764 9.82617 132.529 10.0137C132.295 10.1973 132.119 10.4473 132.002 10.7637C131.889 11.0801 131.83 11.4375 131.826 11.8359C131.83 12.2344 131.889 12.5918 132.002 12.9082C132.119 13.2246 132.295 13.4746 132.529 13.6582C132.764 13.8418 133.049 13.9336 133.385 13.9336ZM139.074 15H137.586V8.63672H139.01V9.71484H139.08C139.232 9.35156 139.471 9.06836 139.795 8.86523C140.119 8.6582 140.514 8.55469 140.979 8.55469C141.42 8.55469 141.803 8.64844 142.127 8.83594C142.455 9.01953 142.707 9.29297 142.883 9.65625C143.062 10.0156 143.152 10.4453 143.152 10.9453V15H141.664V11.1738C141.664 10.8926 141.615 10.6504 141.518 10.4473C141.42 10.2441 141.277 10.0879 141.09 9.97852C140.906 9.86914 140.684 9.81445 140.422 9.81445C140.156 9.81445 139.922 9.87109 139.719 9.98438C139.516 10.0977 139.357 10.2656 139.244 10.4883C139.131 10.707 139.074 10.9668 139.074 11.2676V15ZM147.43 13.8926L150.424 11.0098C150.748 10.6816 151 10.4121 151.18 10.2012C151.359 9.99023 151.496 9.7832 151.59 9.58008C151.688 9.37305 151.736 9.1543 151.736 8.92383C151.736 8.66992 151.672 8.44531 151.543 8.25C151.414 8.05469 151.238 7.9043 151.016 7.79883C150.797 7.68945 150.549 7.63477 150.271 7.63477C149.986 7.63477 149.736 7.69336 149.521 7.81055C149.307 7.92383 149.139 8.08789 149.018 8.30273C148.9 8.51367 148.842 8.76172 148.842 9.04688H147.395C147.391 8.51953 147.512 8.05664 147.758 7.6582C148.004 7.25586 148.348 6.94531 148.789 6.72656C149.23 6.50781 149.732 6.39844 150.295 6.39844C150.861 6.39844 151.363 6.50391 151.801 6.71484C152.242 6.92578 152.584 7.2168 152.826 7.58789C153.072 7.95898 153.195 8.38086 153.195 8.85352C153.191 9.18164 153.127 9.49805 153.002 9.80273C152.881 10.1074 152.666 10.4453 152.357 10.8164C152.053 11.1875 151.623 11.6348 151.068 12.1582L149.557 13.6582V13.7227H153.324V15H147.436L147.43 13.8926Z" fill="white"/>
<path d="M9.40625 36.2734H17.0703V37.6797H10.9883V41.9336H16.4902V43.3223H10.9883V49H9.40625V36.2734ZM28.1094 40.2812C27.9922 39.7129 27.7607 39.2266 27.415 38.8223C27.0693 38.4121 26.6475 38.1016 26.1494 37.8906C25.6572 37.6797 25.127 37.5742 24.5586 37.5742C23.7793 37.5742 23.0791 37.7705 22.458 38.1631C21.8428 38.5557 21.3564 39.1328 20.999 39.8945C20.6416 40.6562 20.4629 41.5703 20.4629 42.6367C20.4629 43.6973 20.6416 44.6084 20.999 45.3701C21.3564 46.126 21.8428 46.7031 22.458 47.1016C23.0791 47.4941 23.7793 47.6934 24.5586 47.6992C25.127 47.6934 25.6572 47.5879 26.1494 47.3828C26.6475 47.1719 27.0664 46.8643 27.4062 46.46C27.752 46.0557 27.9863 45.5723 28.1094 45.0098H29.6914C29.5391 45.8594 29.2227 46.6006 28.7422 47.2334C28.2617 47.8604 27.6582 48.3408 26.9316 48.6748C26.2109 49.0088 25.4199 49.1758 24.5586 49.1758C23.4688 49.1758 22.499 48.9092 21.6494 48.376C20.7998 47.8428 20.1348 47.084 19.6543 46.0996C19.1738 45.1094 18.9336 43.9551 18.9336 42.6367C18.9336 41.3184 19.1738 40.167 19.6543 39.1826C20.1348 38.1924 20.7998 37.4307 21.6494 36.8975C22.499 36.3643 23.4688 36.0977 24.5586 36.0977C25.4199 36.0977 26.2109 36.2617 26.9316 36.5898C27.6582 36.918 28.2617 37.3984 28.7422 38.0312C29.2227 38.6641 29.5391 39.4141 29.6914 40.2812H28.1094ZM36.4238 36.2734H40.8887C41.75 36.2734 42.4736 36.4199 43.0596 36.7129C43.6514 37.0059 44.0908 37.4102 44.3779 37.9258C44.6709 38.4355 44.8145 39.0098 44.8086 39.6484C44.8086 40.1699 44.7178 40.6123 44.5361 40.9756C44.3545 41.333 44.1084 41.6201 43.7979 41.8369C43.4873 42.0479 43.1328 42.209 42.7344 42.3203V42.4434C43.1504 42.4668 43.5547 42.6074 43.9473 42.8652C44.3457 43.123 44.6738 43.4893 44.9316 43.9639C45.1895 44.4326 45.3184 44.9863 45.3184 45.625C45.3125 46.2812 45.1572 46.8613 44.8525 47.3652C44.5537 47.8691 44.085 48.2676 43.4463 48.5605C42.8135 48.8535 42.0137 49 41.0469 49H36.4238V36.2734ZM41.0293 47.5938C41.668 47.5938 42.1924 47.5059 42.6025 47.3301C43.0186 47.1543 43.3203 46.9199 43.5078 46.627C43.7012 46.334 43.7949 45.9941 43.7891 45.6074C43.7949 45.1738 43.6865 44.7754 43.4639 44.4121C43.2471 44.0488 42.9336 43.7588 42.5234 43.542C42.1133 43.3252 41.6445 43.2168 41.1172 43.2168H38.0059V47.5938H41.0293ZM40.8359 41.8457C41.293 41.8457 41.709 41.7549 42.084 41.5732C42.459 41.3916 42.7549 41.1367 42.9717 40.8086C43.1885 40.4805 43.2969 40.0996 43.2969 39.666C43.2969 39.2852 43.209 38.9453 43.0332 38.6465C42.8574 38.3418 42.5879 38.1045 42.2246 37.9346C41.8672 37.7646 41.4219 37.6797 40.8887 37.6797H38.0059V41.8457H40.8359ZM49.1504 49H47.5684V36.2734H49.1504V49ZM51.2598 36.2734H60.8574V37.6797H56.8672V49H55.2676V37.6797H51.2598V36.2734ZM71.7998 49.1758C70.8682 49.1758 70.0391 49.0176 69.3125 48.7012C68.5859 48.3848 68.0117 47.9424 67.5898 47.374C67.1738 46.7998 66.96 46.1465 66.9482 45.4141H69.6113C69.623 45.7246 69.7285 46 69.9277 46.2402C70.127 46.4746 70.3877 46.6592 70.71 46.7939C71.0322 46.9229 71.3955 46.9873 71.7998 46.9873C72.2217 46.9873 72.5996 46.9141 72.9336 46.7676C73.2676 46.6211 73.5254 46.416 73.707 46.1523C73.8887 45.8887 73.9766 45.5898 73.9707 45.2559C73.9707 44.916 73.874 44.6113 73.6807 44.3418C73.4932 44.0664 73.2148 43.8555 72.8457 43.709C72.4824 43.5566 72.0547 43.4805 71.5625 43.4805H70.376V41.5293H71.5625C71.9785 41.5293 72.3477 41.459 72.6699 41.3184C72.9922 41.1719 73.2412 40.9727 73.417 40.7207C73.5986 40.4629 73.6895 40.167 73.6895 39.833C73.6895 39.5166 73.6104 39.2354 73.4521 38.9893C73.2998 38.7373 73.083 38.5439 72.8018 38.4092C72.5205 38.2686 72.1953 38.1982 71.8262 38.1982C71.4512 38.1982 71.1084 38.2656 70.7979 38.4004C70.4873 38.5293 70.2354 38.7168 70.042 38.9629C69.8486 39.209 69.7461 39.4902 69.7344 39.8066H67.2031C67.2148 39.0918 67.4258 38.4502 67.8359 37.8818C68.2461 37.3135 68.7969 36.874 69.4883 36.5635C70.1855 36.2529 70.9648 36.0977 71.8262 36.0977C72.6992 36.0977 73.4697 36.2559 74.1377 36.5723C74.8057 36.8828 75.3213 37.3135 75.6846 37.8643C76.0537 38.4092 76.2354 39.0127 76.2295 39.6748C76.2354 40.1436 76.1387 40.5684 75.9395 40.9492C75.7402 41.3242 75.4561 41.6348 75.0869 41.8809C74.7236 42.1211 74.3018 42.2852 73.8213 42.373V42.4697C74.4365 42.5459 74.9609 42.7158 75.3945 42.9795C75.834 43.2432 76.165 43.5859 76.3877 44.0078C76.6104 44.4238 76.7188 44.8984 76.7129 45.4316C76.7188 46.1465 76.5107 46.7881 76.0889 47.3564C75.6729 47.9248 75.0898 48.3701 74.3398 48.6924C73.5898 49.0146 72.7432 49.1758 71.7998 49.1758ZM87.2949 49H85.7305L82.2148 39.4551H83.8672L86.4688 47.0312H86.5742L89.1758 39.4551H90.8281L87.2949 49ZM97.8066 41.9336C97.6953 41.5234 97.4785 41.2041 97.1562 40.9756C96.8398 40.7412 96.4121 40.6211 95.873 40.6152C95.4863 40.6152 95.1406 40.6797 94.8359 40.8086C94.5312 40.9375 94.291 41.1133 94.1152 41.3359C93.9395 41.5527 93.8516 41.793 93.8516 42.0566C93.8574 42.373 93.9922 42.6426 94.2559 42.8652C94.5195 43.082 94.9297 43.2578 95.4863 43.3926L96.9102 43.7441C97.7598 43.9434 98.3955 44.2598 98.8174 44.6934C99.2393 45.1211 99.4531 45.666 99.459 46.3281C99.4531 46.8848 99.3037 47.3799 99.0107 47.8135C98.7236 48.2412 98.2959 48.5781 97.7275 48.8242C97.165 49.0703 96.4941 49.1934 95.7148 49.1934C95.0059 49.1934 94.3906 49.0908 93.8691 48.8857C93.3535 48.6807 92.9404 48.3789 92.6299 47.9805C92.3193 47.5762 92.123 47.084 92.041 46.5039H93.623C93.7109 46.9668 93.9248 47.3125 94.2646 47.541C94.6045 47.7695 95.0762 47.8809 95.6797 47.875C96.1309 47.875 96.5234 47.8164 96.8574 47.6992C97.1973 47.582 97.4551 47.415 97.6309 47.1982C97.8066 46.9756 97.8945 46.7148 97.8945 46.416C97.8945 46.0762 97.7686 45.7949 97.5166 45.5723C97.2646 45.3496 96.8691 45.1738 96.3301 45.0449L94.8887 44.7109C94.0625 44.5176 93.4297 44.2012 92.9902 43.7617C92.5566 43.3223 92.3398 42.7832 92.3398 42.1445C92.3398 41.6055 92.4893 41.1221 92.7881 40.6943C93.0869 40.2666 93.5029 39.9326 94.0361 39.6924C94.5693 39.4521 95.1816 39.332 95.873 39.332C96.5176 39.332 97.0859 39.4404 97.5781 39.6572C98.0703 39.874 98.46 40.1787 98.7471 40.5713C99.04 40.9639 99.2188 41.418 99.2832 41.9336H97.8066ZM106.139 36.2734H113.803V37.6797H107.721V41.9336H113.223V43.3223H107.721V49H106.139V36.2734ZM124.842 40.2812C124.725 39.7129 124.493 39.2266 124.147 38.8223C123.802 38.4121 123.38 38.1016 122.882 37.8906C122.39 37.6797 121.859 37.5742 121.291 37.5742C120.512 37.5742 119.812 37.7705 119.19 38.1631C118.575 38.5557 118.089 39.1328 117.731 39.8945C117.374 40.6562 117.195 41.5703 117.195 42.6367C117.195 43.6973 117.374 44.6084 117.731 45.3701C118.089 46.126 118.575 46.7031 119.19 47.1016C119.812 47.4941 120.512 47.6934 121.291 47.6992C121.859 47.6934 122.39 47.5879 122.882 47.3828C123.38 47.1719 123.799 46.8643 124.139 46.46C124.484 46.0557 124.719 45.5723 124.842 45.0098H126.424C126.271 45.8594 125.955 46.6006 125.475 47.2334C124.994 47.8604 124.391 48.3408 123.664 48.6748C122.943 49.0088 122.152 49.1758 121.291 49.1758C120.201 49.1758 119.231 48.9092 118.382 48.376C117.532 47.8428 116.867 47.084 116.387 46.0996C115.906 45.1094 115.666 43.9551 115.666 42.6367C115.666 41.3184 115.906 40.167 116.387 39.1826C116.867 38.1924 117.532 37.4307 118.382 36.8975C119.231 36.3643 120.201 36.0977 121.291 36.0977C122.152 36.0977 122.943 36.2617 123.664 36.5898C124.391 36.918 124.994 37.3984 125.475 38.0312C125.955 38.6641 126.271 39.4141 126.424 40.2812H124.842ZM132.066 49L136.725 36.2734H138.395L143.053 49H141.383L137.604 38.3301H137.498L133.719 49H132.066ZM140.82 44.0254V45.4141H134.299V44.0254H140.82ZM144.775 36.2734H146.357V47.5938H152.264V49H144.775V36.2734ZM151.982 36.2734H161.58V37.6797H157.59V49H155.99V37.6797H151.982V36.2734ZM167.785 47.0928L172.364 42.8828C172.81 42.4492 173.158 42.0889 173.41 41.8018C173.662 41.5146 173.855 41.2275 173.99 40.9404C174.125 40.6533 174.192 40.3457 174.192 40.0176C174.192 39.6543 174.104 39.335 173.929 39.0596C173.753 38.7842 173.513 38.5732 173.208 38.4268C172.903 38.2744 172.558 38.1982 172.171 38.1982C171.772 38.1982 171.424 38.2773 171.125 38.4355C170.832 38.5938 170.604 38.8223 170.439 39.1211C170.275 39.4199 170.193 39.7715 170.193 40.1758H167.68C167.68 39.3555 167.867 38.6377 168.242 38.0225C168.617 37.4072 169.147 36.9326 169.833 36.5986C170.519 36.2646 171.307 36.0977 172.197 36.0977C173.094 36.0977 173.885 36.2559 174.57 36.5723C175.262 36.8887 175.795 37.3311 176.17 37.8994C176.545 38.4678 176.732 39.1182 176.732 39.8506C176.732 40.3545 176.636 40.8379 176.442 41.3008C176.255 41.7578 175.921 42.2705 175.44 42.8389C174.96 43.4014 174.283 44.0781 173.41 44.8691L171.468 46.7412V46.8291H176.917V49H167.794L167.785 47.0928Z" fill="white"/>
<defs>
<radialGradient id="paint0_radial_135_1330" cx="0" cy="0" r="1" gradientUnits="userSpaceOnUse" gradientTransform="translate(93 40.5) rotate(90) scale(23.5 68.2969)">
<stop stop-opacity="0"/>
<stop offset="1"/>
</radialGradient>
<radialGradient id="paint1_radial_135_1330" cx="0" cy="0" r="1" gradientUnits="userSpaceOnUse" gradientTransform="translate(93 11) scale(107 12.6559)">
<stop stop-opacity="0"/>
<stop offset="1"/>
</radialGradient>
<linearGradient id="paint2_linear_135_1330" x1="2" y1="0" x2="2" y2="64" gradientUnits="userSpaceOnUse">
<stop stop-color="#978795"/>
<stop offset="1" stop-color="#312C30"/>
</linearGradient>
<linearGradient id="paint3_linear_135_1330" x1="184" y1="0" x2="184" y2="64" gradientUnits="userSpaceOnUse">
<stop stop-color="#978795"/>
<stop offset="1" stop-color="#312C30"/>
</linearGradient>
</defs>
</svg>
