<svg width="186" height="64" viewBox="0 0 186 64" fill="none" xmlns="http://www.w3.org/2000/svg">
<rect width="186" height="64" fill="#5D4864"/>
<rect width="186" height="64" fill="url(#paint0_radial_370_5728)" fill-opacity="0.4"/>
<rect width="186" height="22" fill="#972310"/>
<rect width="186" height="22" fill="url(#paint1_radial_370_5728)" fill-opacity="0.32"/>
<rect width="4" height="64" fill="url(#paint2_linear_370_5728)"/>
<rect x="182" width="4" height="64" fill="url(#paint3_linear_370_5728)"/>
<path d="M35.2734 6.51562H38.5137C39.1113 6.51562 39.6152 6.60938 40.0254 6.79688C40.4395 6.98047 40.75 7.24023 40.957 7.57617C41.1641 7.9082 41.2656 8.28906 41.2617 8.71875C41.2617 9.05078 41.1973 9.33984 41.0684 9.58594C40.9434 9.83203 40.7695 10.0332 40.5469 10.1895C40.3242 10.3418 40.0684 10.4531 39.7793 10.5234V10.6055C40.0918 10.6211 40.3867 10.7148 40.6641 10.8867C40.9414 11.0586 41.166 11.3008 41.3379 11.6133C41.5098 11.9219 41.5957 12.2812 41.5957 12.6914C41.5957 13.1406 41.4863 13.5391 41.2676 13.8867C41.0527 14.2305 40.7285 14.502 40.2949 14.7012C39.8613 14.9004 39.3301 15 38.7012 15H35.2734V6.51562ZM38.4609 13.7227C38.8203 13.7227 39.1172 13.6738 39.3516 13.5762C39.5898 13.4785 39.7656 13.3457 39.8789 13.1777C39.9922 13.0059 40.0469 12.8027 40.043 12.5684C40.0469 12.3145 39.9863 12.0859 39.8613 11.8828C39.7363 11.6797 39.5566 11.5215 39.3223 11.4082C39.0879 11.291 38.8164 11.2305 38.5078 11.2266H36.7969V13.7227H38.4609ZM38.332 10.125C38.5977 10.125 38.8379 10.0742 39.0527 9.97266C39.2676 9.87109 39.4355 9.73047 39.5566 9.55078C39.6777 9.36719 39.7383 9.1543 39.7383 8.91211C39.7383 8.68945 39.6855 8.49219 39.5801 8.32031C39.4785 8.14844 39.3242 8.01562 39.1172 7.92188C38.9102 7.82812 38.6602 7.78125 38.3672 7.78125H36.7969V10.125H38.332ZM46.5645 12.1816C46.416 12.1934 46.3008 12.2031 46.2188 12.2109C46.1406 12.2148 46.0234 12.2227 45.8672 12.2344C45.5781 12.2461 45.3145 12.2617 45.0762 12.2812C44.709 12.3125 44.4238 12.4043 44.2207 12.5566C44.0176 12.709 43.916 12.9219 43.916 13.1953C43.916 13.375 43.9629 13.5273 44.0566 13.6523C44.1504 13.7773 44.2773 13.873 44.4375 13.9395C44.5977 14.002 44.7832 14.0312 44.9941 14.0273C45.2871 14.0273 45.5469 13.9688 45.7734 13.8516C46 13.7344 46.1738 13.5762 46.2949 13.377C46.4199 13.1738 46.4824 12.9531 46.4824 12.7148L46.4707 10.6816C46.4707 10.4746 46.4277 10.2969 46.3418 10.1484C46.2559 9.99609 46.125 9.88281 45.9492 9.80859C45.7773 9.73438 45.5664 9.69727 45.3164 9.69727C44.9922 9.69727 44.7285 9.76562 44.5254 9.90234C44.3223 10.0352 44.1914 10.2168 44.1328 10.4473H42.6797C42.7188 10.084 42.8516 9.75977 43.0781 9.47461C43.3047 9.18555 43.6113 8.96094 43.998 8.80078C44.3887 8.63672 44.8418 8.55469 45.3574 8.55469C45.8105 8.55469 46.2324 8.62305 46.623 8.75977C47.0137 8.89648 47.332 9.12891 47.5781 9.45703C47.8281 9.78516 47.9551 10.2129 47.959 10.7402V15H46.5293V14.1211H46.4824C46.3301 14.418 46.0957 14.6602 45.7793 14.8477C45.4668 15.0352 45.0762 15.1289 44.6074 15.1289C44.1973 15.1289 43.832 15.0566 43.5117 14.9121C43.1914 14.7637 42.9375 14.5449 42.75 14.2559C42.5664 13.9668 42.4746 13.6191 42.4746 13.2129C42.4746 12.5566 42.6953 12.082 43.1367 11.7891C43.5781 11.4961 44.1484 11.3262 44.8477 11.2793C45.0352 11.2676 45.2422 11.2559 45.4688 11.2441C45.6992 11.2285 45.9219 11.2168 46.1367 11.209C46.2734 11.2051 46.4121 11.2012 46.5527 11.1973L46.5645 12.1816ZM52.9746 10.4473C52.9238 10.2051 52.8008 10.0156 52.6055 9.87891C52.4141 9.73828 52.1621 9.66602 51.8496 9.66211C51.6387 9.66211 51.4492 9.69531 51.2812 9.76172C51.1133 9.82422 50.9805 9.91406 50.8828 10.0312C50.7891 10.1445 50.7422 10.2734 50.7422 10.418C50.7422 10.5859 50.8145 10.7305 50.959 10.8516C51.1035 10.9727 51.334 11.0684 51.6504 11.1387L52.7344 11.373C53.332 11.502 53.7773 11.709 54.0703 11.9941C54.3672 12.2793 54.5176 12.6465 54.5215 13.0957C54.5176 13.4941 54.4043 13.8457 54.1816 14.1504C53.9629 14.4551 53.6484 14.6934 53.2383 14.8652C52.8281 15.0371 52.3516 15.123 51.8086 15.123C51.2734 15.123 50.8105 15.0469 50.4199 14.8945C50.0293 14.7422 49.7188 14.5215 49.4883 14.2324C49.2617 13.9434 49.123 13.5957 49.0723 13.1895H50.5898C50.6367 13.459 50.7617 13.6621 50.9648 13.7988C51.1719 13.9316 51.4512 13.9961 51.8027 13.9922C52.041 13.9961 52.25 13.9668 52.4297 13.9043C52.6133 13.8418 52.752 13.7539 52.8457 13.6406C52.9434 13.5273 52.9922 13.3906 52.9922 13.2305C52.9922 13.0469 52.918 12.8945 52.7695 12.7734C52.6211 12.6523 52.3887 12.5566 52.0723 12.4863L51.0469 12.2754C50.4609 12.1543 50.0156 11.9434 49.7109 11.6426C49.4062 11.3379 49.2539 10.959 49.2539 10.5059C49.2539 10.1152 49.3594 9.77344 49.5703 9.48047C49.7852 9.18359 50.0859 8.95508 50.4727 8.79492C50.8633 8.63477 51.3164 8.55469 51.832 8.55469C52.3281 8.55469 52.7617 8.63281 53.1328 8.78906C53.5078 8.94141 53.8008 9.16016 54.0117 9.44531C54.2266 9.73047 54.3516 10.0645 54.3867 10.4473H52.9746ZM58.4824 15.123C57.8496 15.123 57.3008 14.9902 56.8359 14.7246C56.3711 14.459 56.0137 14.0801 55.7637 13.5879C55.5137 13.0957 55.3887 12.5195 55.3887 11.8594C55.3887 11.207 55.5137 10.6309 55.7637 10.1309C56.0176 9.62695 56.3711 9.23828 56.8242 8.96484C57.2773 8.69141 57.8047 8.55469 58.4062 8.55469C58.9453 8.55469 59.4336 8.66992 59.8711 8.90039C60.3086 9.13086 60.6562 9.48633 60.9141 9.9668C61.1758 10.4473 61.3066 11.0449 61.3066 11.7598V12.2285H56.0977V11.2148H59.877C59.873 10.9297 59.8105 10.6738 59.6895 10.4473C59.5723 10.2168 59.4023 10.0371 59.1797 9.9082C58.9609 9.7793 58.709 9.71484 58.4238 9.71484C58.1191 9.71484 57.8496 9.78711 57.6152 9.93164C57.3809 10.0762 57.1973 10.2715 57.0645 10.5176C56.9355 10.7598 56.8691 11.0254 56.8652 11.3145V12.1816C56.8652 12.5527 56.9336 12.8711 57.0703 13.1367C57.207 13.4023 57.3965 13.6074 57.6387 13.752C57.8848 13.8926 58.1719 13.9629 58.5 13.9629C58.7109 13.9629 58.9004 13.9336 59.0684 13.875C59.2402 13.8164 59.3848 13.7383 59.502 13.6406C59.623 13.543 59.7168 13.4297 59.7832 13.3008H61.248C61.1582 13.668 60.9883 13.9902 60.7383 14.2676C60.4922 14.541 60.1758 14.752 59.7891 14.9004C59.4062 15.0488 58.9707 15.123 58.4824 15.123ZM65.4023 6.51562H68.5781C69.2109 6.51562 69.752 6.63477 70.2012 6.87305C70.6543 7.11133 70.9961 7.44336 71.2266 7.86914C71.457 8.29102 71.5723 8.77734 71.5723 9.32812C71.5723 9.875 71.4551 10.3594 71.2207 10.7812C70.9902 11.1992 70.6484 11.5293 70.1953 11.7715C69.7422 12.0098 69.1953 12.1289 68.5547 12.1289H66.4453V10.8691H68.3496C68.7246 10.8691 69.0352 10.8047 69.2812 10.6758C69.5312 10.543 69.7148 10.3633 69.832 10.1367C69.9492 9.90625 70.0098 9.63672 70.0137 9.32812C70.0098 9.01562 69.9492 8.74609 69.832 8.51953C69.7148 8.28906 69.5312 8.11133 69.2812 7.98633C69.0312 7.85742 68.7188 7.79297 68.3438 7.79297H66.9258V15H65.4023V6.51562ZM72.7441 8.63672H74.1855V9.69727H74.2559C74.3652 9.33398 74.5605 9.05078 74.8418 8.84766C75.127 8.64453 75.4531 8.54297 75.8203 8.54297C76.0898 8.54688 76.2715 8.56055 76.3652 8.58398V9.96094C76.2832 9.93359 76.1758 9.91211 76.043 9.89648C75.9141 9.88086 75.7891 9.87305 75.668 9.87305C75.3945 9.87305 75.1484 9.93164 74.9297 10.0488C74.7148 10.166 74.5449 10.3301 74.4199 10.541C74.2949 10.752 74.2324 10.9902 74.2324 11.2559V15H72.7441V8.63672ZM79.8691 15.123C79.2363 15.123 78.6875 14.9902 78.2227 14.7246C77.7578 14.459 77.4004 14.0801 77.1504 13.5879C76.9004 13.0957 76.7754 12.5195 76.7754 11.8594C76.7754 11.207 76.9004 10.6309 77.1504 10.1309C77.4043 9.62695 77.7578 9.23828 78.2109 8.96484C78.6641 8.69141 79.1914 8.55469 79.793 8.55469C80.332 8.55469 80.8203 8.66992 81.2578 8.90039C81.6953 9.13086 82.043 9.48633 82.3008 9.9668C82.5625 10.4473 82.6934 11.0449 82.6934 11.7598V12.2285H77.4844V11.2148H81.2637C81.2598 10.9297 81.1973 10.6738 81.0762 10.4473C80.959 10.2168 80.7891 10.0371 80.5664 9.9082C80.3477 9.7793 80.0957 9.71484 79.8105 9.71484C79.5059 9.71484 79.2363 9.78711 79.002 9.93164C78.7676 10.0762 78.584 10.2715 78.4512 10.5176C78.3223 10.7598 78.2559 11.0254 78.252 11.3145V12.1816C78.252 12.5527 78.3203 12.8711 78.457 13.1367C78.5938 13.4023 78.7832 13.6074 79.0254 13.752C79.2715 13.8926 79.5586 13.9629 79.8867 13.9629C80.0977 13.9629 80.2871 13.9336 80.4551 13.875C80.627 13.8164 80.7715 13.7383 80.8887 13.6406C81.0098 13.543 81.1035 13.4297 81.1699 13.3008H82.6348C82.5449 13.668 82.375 13.9902 82.125 14.2676C81.8789 14.541 81.5625 14.752 81.1758 14.9004C80.793 15.0488 80.3574 15.123 79.8691 15.123ZM83.8652 8.63672H85.2891V9.71484H85.3594C85.4961 9.35156 85.7168 9.06836 86.0215 8.86523C86.3262 8.6582 86.6914 8.55469 87.1172 8.55469C87.3984 8.55469 87.6543 8.60156 87.8848 8.69531C88.1152 8.78516 88.3105 8.91797 88.4707 9.09375C88.6309 9.26562 88.752 9.47266 88.834 9.71484H88.8984C88.9922 9.48047 89.1309 9.27539 89.3145 9.09961C89.498 8.92383 89.7168 8.78906 89.9707 8.69531C90.2285 8.60156 90.5098 8.55469 90.8145 8.55469C91.2051 8.55469 91.5508 8.63867 91.8516 8.80664C92.1523 8.9707 92.3848 9.2168 92.5488 9.54492C92.7168 9.87305 92.8008 10.2695 92.8008 10.7344V15H91.3066V10.957C91.3066 10.5781 91.2051 10.293 91.002 10.1016C90.8027 9.90625 90.5391 9.80859 90.2109 9.80859C89.9727 9.80859 89.7676 9.86133 89.5957 9.9668C89.4238 10.0684 89.291 10.2109 89.1973 10.3945C89.1074 10.5742 89.0605 10.7832 89.0566 11.0215V15H87.5977V10.8926C87.5977 10.6777 87.5527 10.4883 87.4629 10.3242C87.377 10.1562 87.252 10.0293 87.0879 9.94336C86.9277 9.85352 86.7422 9.80859 86.5312 9.80859C86.3125 9.80859 86.1133 9.86328 85.9336 9.97266C85.7578 10.082 85.6172 10.2383 85.5117 10.4414C85.4062 10.6406 85.3535 10.8691 85.3535 11.127V15H83.8652V8.63672ZM94.2363 8.63672H95.7246V15H94.2363V8.63672ZM94.9805 7.72852C94.8203 7.72852 94.6738 7.69141 94.541 7.61719C94.4121 7.54297 94.3086 7.44531 94.2305 7.32422C94.1523 7.20312 94.1133 7.06836 94.1133 6.91992C94.1133 6.77148 94.1523 6.63477 94.2305 6.50977C94.3086 6.38477 94.4121 6.28711 94.541 6.2168C94.6738 6.14648 94.8184 6.11133 94.9746 6.11133C95.1309 6.11133 95.2754 6.14648 95.4082 6.2168C95.541 6.28711 95.6465 6.38477 95.7246 6.50977C95.8066 6.63477 95.8477 6.77148 95.8477 6.91992C95.8477 7.06836 95.8066 7.20312 95.7246 7.32422C95.6465 7.44531 95.541 7.54297 95.4082 7.61719C95.2754 7.69141 95.1328 7.72852 94.9805 7.72852ZM99.9785 15.123C99.3457 15.123 98.7969 14.9902 98.332 14.7246C97.8672 14.459 97.5098 14.0801 97.2598 13.5879C97.0098 13.0957 96.8848 12.5195 96.8848 11.8594C96.8848 11.207 97.0098 10.6309 97.2598 10.1309C97.5137 9.62695 97.8672 9.23828 98.3203 8.96484C98.7734 8.69141 99.3008 8.55469 99.9023 8.55469C100.441 8.55469 100.93 8.66992 101.367 8.90039C101.805 9.13086 102.152 9.48633 102.41 9.9668C102.672 10.4473 102.803 11.0449 102.803 11.7598V12.2285H97.5938V11.2148H101.373C101.369 10.9297 101.307 10.6738 101.186 10.4473C101.068 10.2168 100.898 10.0371 100.676 9.9082C100.457 9.7793 100.205 9.71484 99.9199 9.71484C99.6152 9.71484 99.3457 9.78711 99.1113 9.93164C98.877 10.0762 98.6934 10.2715 98.5605 10.5176C98.4316 10.7598 98.3652 11.0254 98.3613 11.3145V12.1816C98.3613 12.5527 98.4297 12.8711 98.5664 13.1367C98.7031 13.4023 98.8926 13.6074 99.1348 13.752C99.3809 13.8926 99.668 13.9629 99.9961 13.9629C100.207 13.9629 100.396 13.9336 100.564 13.875C100.736 13.8164 100.881 13.7383 100.998 13.6406C101.119 13.543 101.213 13.4297 101.279 13.3008H102.744C102.654 13.668 102.484 13.9902 102.234 14.2676C101.988 14.541 101.672 14.752 101.285 14.9004C100.902 15.0488 100.467 15.123 99.9785 15.123ZM103.975 8.63672H105.416V9.69727H105.486C105.596 9.33398 105.791 9.05078 106.072 8.84766C106.357 8.64453 106.684 8.54297 107.051 8.54297C107.32 8.54688 107.502 8.56055 107.596 8.58398V9.96094C107.514 9.93359 107.406 9.91211 107.273 9.89648C107.145 9.88086 107.02 9.87305 106.898 9.87305C106.625 9.87305 106.379 9.93164 106.16 10.0488C105.945 10.166 105.775 10.3301 105.65 10.541C105.525 10.752 105.463 10.9902 105.463 11.2559V15H103.975V8.63672ZM111.422 6.51562H112.945V13.7168H116.695V15H111.422V6.51562ZM120.674 15.123C120.041 15.123 119.492 14.9902 119.027 14.7246C118.562 14.459 118.205 14.0801 117.955 13.5879C117.705 13.0957 117.58 12.5195 117.58 11.8594C117.58 11.207 117.705 10.6309 117.955 10.1309C118.209 9.62695 118.562 9.23828 119.016 8.96484C119.469 8.69141 119.996 8.55469 120.598 8.55469C121.137 8.55469 121.625 8.66992 122.062 8.90039C122.5 9.13086 122.848 9.48633 123.105 9.9668C123.367 10.4473 123.498 11.0449 123.498 11.7598V12.2285H118.289V11.2148H122.068C122.064 10.9297 122.002 10.6738 121.881 10.4473C121.764 10.2168 121.594 10.0371 121.371 9.9082C121.152 9.7793 120.9 9.71484 120.615 9.71484C120.311 9.71484 120.041 9.78711 119.807 9.93164C119.572 10.0762 119.389 10.2715 119.256 10.5176C119.127 10.7598 119.061 11.0254 119.057 11.3145V12.1816C119.057 12.5527 119.125 12.8711 119.262 13.1367C119.398 13.4023 119.588 13.6074 119.83 13.752C120.076 13.8926 120.363 13.9629 120.691 13.9629C120.902 13.9629 121.092 13.9336 121.26 13.875C121.432 13.8164 121.576 13.7383 121.693 13.6406C121.814 13.543 121.908 13.4297 121.975 13.3008H123.439C123.35 13.668 123.18 13.9902 122.93 14.2676C122.684 14.541 122.367 14.752 121.98 14.9004C121.598 15.0488 121.162 15.123 120.674 15.123ZM128.455 12.1816C128.307 12.1934 128.191 12.2031 128.109 12.2109C128.031 12.2148 127.914 12.2227 127.758 12.2344C127.469 12.2461 127.205 12.2617 126.967 12.2812C126.6 12.3125 126.314 12.4043 126.111 12.5566C125.908 12.709 125.807 12.9219 125.807 13.1953C125.807 13.375 125.854 13.5273 125.947 13.6523C126.041 13.7773 126.168 13.873 126.328 13.9395C126.488 14.002 126.674 14.0312 126.885 14.0273C127.178 14.0273 127.438 13.9688 127.664 13.8516C127.891 13.7344 128.064 13.5762 128.186 13.377C128.311 13.1738 128.373 12.9531 128.373 12.7148L128.361 10.6816C128.361 10.4746 128.318 10.2969 128.232 10.1484C128.146 9.99609 128.016 9.88281 127.84 9.80859C127.668 9.73438 127.457 9.69727 127.207 9.69727C126.883 9.69727 126.619 9.76562 126.416 9.90234C126.213 10.0352 126.082 10.2168 126.023 10.4473H124.57C124.609 10.084 124.742 9.75977 124.969 9.47461C125.195 9.18555 125.502 8.96094 125.889 8.80078C126.279 8.63672 126.732 8.55469 127.248 8.55469C127.701 8.55469 128.123 8.62305 128.514 8.75977C128.904 8.89648 129.223 9.12891 129.469 9.45703C129.719 9.78516 129.846 10.2129 129.85 10.7402V15H128.42V14.1211H128.373C128.221 14.418 127.986 14.6602 127.67 14.8477C127.357 15.0352 126.967 15.1289 126.498 15.1289C126.088 15.1289 125.723 15.0566 125.402 14.9121C125.082 14.7637 124.828 14.5449 124.641 14.2559C124.457 13.9668 124.365 13.6191 124.365 13.2129C124.365 12.5566 124.586 12.082 125.027 11.7891C125.469 11.4961 126.039 11.3262 126.738 11.2793C126.926 11.2676 127.133 11.2559 127.359 11.2441C127.59 11.2285 127.812 11.2168 128.027 11.209C128.164 11.2051 128.303 11.2012 128.443 11.1973L128.455 12.1816ZM134.027 17.5195C133.473 17.5195 132.986 17.4395 132.568 17.2793C132.15 17.123 131.82 16.8984 131.578 16.6055C131.34 16.3125 131.203 15.9668 131.168 15.5684H132.656C132.711 15.8418 132.859 16.0469 133.102 16.1836C133.344 16.3203 133.66 16.3887 134.051 16.3887C134.52 16.3887 134.883 16.2812 135.141 16.0664C135.402 15.8516 135.533 15.5195 135.533 15.0703V13.8574H135.457L135.434 13.9043C135.332 14.0918 135.209 14.2559 135.064 14.3965C134.924 14.5371 134.732 14.6582 134.49 14.7598C134.248 14.8613 133.961 14.9121 133.629 14.9121C133.125 14.9082 132.674 14.7871 132.275 14.5488C131.881 14.3105 131.568 13.9551 131.338 13.4824C131.111 13.0098 130.998 12.4355 130.998 11.7598C130.998 11.0879 131.113 10.5098 131.344 10.0254C131.574 9.54102 131.889 9.17578 132.287 8.92969C132.686 8.67969 133.133 8.55469 133.629 8.55469C133.957 8.55469 134.238 8.60547 134.473 8.70703C134.707 8.80859 134.893 8.93359 135.029 9.08203C135.17 9.22656 135.297 9.39648 135.41 9.5918C135.43 9.61914 135.447 9.65039 135.463 9.68555H135.539V8.63672H137.01V15.1055C137.01 15.6328 136.883 16.0762 136.629 16.4355C136.379 16.7988 136.029 17.0703 135.58 17.25C135.131 17.4297 134.613 17.5195 134.027 17.5195ZM134.033 13.7344C134.354 13.7344 134.627 13.6562 134.854 13.5C135.08 13.3438 135.252 13.1211 135.369 12.832C135.49 12.5391 135.551 12.1895 135.551 11.7832C135.547 11.377 135.486 11.0234 135.369 10.7227C135.252 10.4219 135.08 10.1895 134.854 10.0254C134.627 9.86133 134.354 9.7793 134.033 9.7793C133.709 9.7793 133.434 9.86328 133.207 10.0312C132.98 10.1992 132.809 10.4355 132.691 10.7402C132.578 11.0449 132.521 11.3926 132.521 11.7832C132.521 12.1816 132.58 12.5273 132.697 12.8203C132.814 13.1094 132.984 13.334 133.207 13.4941C133.434 13.6543 133.709 13.7344 134.033 13.7344ZM142.506 8.63672H143.988V15H142.553V13.875H142.482C142.33 14.2422 142.088 14.5352 141.756 14.7539C141.424 14.9727 141.027 15.082 140.566 15.082C140.148 15.082 139.779 14.9883 139.459 14.8008C139.139 14.6094 138.891 14.334 138.715 13.9746C138.539 13.6152 138.451 13.1855 138.451 12.6855V8.63672H139.939V12.457C139.939 12.7266 139.99 12.9609 140.092 13.1602C140.193 13.3555 140.334 13.5078 140.514 13.6172C140.693 13.7227 140.902 13.7754 141.141 13.7754C141.371 13.7793 141.592 13.7246 141.803 13.6113C142.014 13.498 142.184 13.332 142.312 13.1133C142.441 12.8945 142.506 12.6309 142.506 12.3223V8.63672ZM148.248 15.123C147.615 15.123 147.066 14.9902 146.602 14.7246C146.137 14.459 145.779 14.0801 145.529 13.5879C145.279 13.0957 145.154 12.5195 145.154 11.8594C145.154 11.207 145.279 10.6309 145.529 10.1309C145.783 9.62695 146.137 9.23828 146.59 8.96484C147.043 8.69141 147.57 8.55469 148.172 8.55469C148.711 8.55469 149.199 8.66992 149.637 8.90039C150.074 9.13086 150.422 9.48633 150.68 9.9668C150.941 10.4473 151.072 11.0449 151.072 11.7598V12.2285H145.863V11.2148H149.643C149.639 10.9297 149.576 10.6738 149.455 10.4473C149.338 10.2168 149.168 10.0371 148.945 9.9082C148.727 9.7793 148.475 9.71484 148.189 9.71484C147.885 9.71484 147.615 9.78711 147.381 9.93164C147.146 10.0762 146.963 10.2715 146.83 10.5176C146.701 10.7598 146.635 11.0254 146.631 11.3145V12.1816C146.631 12.5527 146.699 12.8711 146.836 13.1367C146.973 13.4023 147.162 13.6074 147.404 13.752C147.65 13.8926 147.938 13.9629 148.266 13.9629C148.477 13.9629 148.666 13.9336 148.834 13.875C149.006 13.8164 149.15 13.7383 149.268 13.6406C149.389 13.543 149.482 13.4297 149.549 13.3008H151.014C150.924 13.668 150.754 13.9902 150.504 14.2676C150.258 14.541 149.941 14.752 149.555 14.9004C149.172 15.0488 148.736 15.123 148.248 15.123Z" fill="white"/>
<path d="M9.40625 36.2734H17.0703V37.6797H10.9883V41.9336H16.4902V43.3223H10.9883V49H9.40625V36.2734ZM28.1094 40.2812C27.9922 39.7129 27.7607 39.2266 27.415 38.8223C27.0693 38.4121 26.6475 38.1016 26.1494 37.8906C25.6572 37.6797 25.127 37.5742 24.5586 37.5742C23.7793 37.5742 23.0791 37.7705 22.458 38.1631C21.8428 38.5557 21.3564 39.1328 20.999 39.8945C20.6416 40.6562 20.4629 41.5703 20.4629 42.6367C20.4629 43.6973 20.6416 44.6084 20.999 45.3701C21.3564 46.126 21.8428 46.7031 22.458 47.1016C23.0791 47.4941 23.7793 47.6934 24.5586 47.6992C25.127 47.6934 25.6572 47.5879 26.1494 47.3828C26.6475 47.1719 27.0664 46.8643 27.4062 46.46C27.752 46.0557 27.9863 45.5723 28.1094 45.0098H29.6914C29.5391 45.8594 29.2227 46.6006 28.7422 47.2334C28.2617 47.8604 27.6582 48.3408 26.9316 48.6748C26.2109 49.0088 25.4199 49.1758 24.5586 49.1758C23.4688 49.1758 22.499 48.9092 21.6494 48.376C20.7998 47.8428 20.1348 47.084 19.6543 46.0996C19.1738 45.1094 18.9336 43.9551 18.9336 42.6367C18.9336 41.3184 19.1738 40.167 19.6543 39.1826C20.1348 38.1924 20.7998 37.4307 21.6494 36.8975C22.499 36.3643 23.4688 36.0977 24.5586 36.0977C25.4199 36.0977 26.2109 36.2617 26.9316 36.5898C27.6582 36.918 28.2617 37.3984 28.7422 38.0312C29.2227 38.6641 29.5391 39.4141 29.6914 40.2812H28.1094ZM36.4238 36.2734H40.8887C41.75 36.2734 42.4736 36.4199 43.0596 36.7129C43.6514 37.0059 44.0908 37.4102 44.3779 37.9258C44.6709 38.4355 44.8145 39.0098 44.8086 39.6484C44.8086 40.1699 44.7178 40.6123 44.5361 40.9756C44.3545 41.333 44.1084 41.6201 43.7979 41.8369C43.4873 42.0479 43.1328 42.209 42.7344 42.3203V42.4434C43.1504 42.4668 43.5547 42.6074 43.9473 42.8652C44.3457 43.123 44.6738 43.4893 44.9316 43.9639C45.1895 44.4326 45.3184 44.9863 45.3184 45.625C45.3125 46.2812 45.1572 46.8613 44.8525 47.3652C44.5537 47.8691 44.085 48.2676 43.4463 48.5605C42.8135 48.8535 42.0137 49 41.0469 49H36.4238V36.2734ZM41.0293 47.5938C41.668 47.5938 42.1924 47.5059 42.6025 47.3301C43.0186 47.1543 43.3203 46.9199 43.5078 46.627C43.7012 46.334 43.7949 45.9941 43.7891 45.6074C43.7949 45.1738 43.6865 44.7754 43.4639 44.4121C43.2471 44.0488 42.9336 43.7588 42.5234 43.542C42.1133 43.3252 41.6445 43.2168 41.1172 43.2168H38.0059V47.5938H41.0293ZM40.8359 41.8457C41.293 41.8457 41.709 41.7549 42.084 41.5732C42.459 41.3916 42.7549 41.1367 42.9717 40.8086C43.1885 40.4805 43.2969 40.0996 43.2969 39.666C43.2969 39.2852 43.209 38.9453 43.0332 38.6465C42.8574 38.3418 42.5879 38.1045 42.2246 37.9346C41.8672 37.7646 41.4219 37.6797 40.8887 37.6797H38.0059V41.8457H40.8359ZM49.1504 49H47.5684V36.2734H49.1504V49ZM51.2598 36.2734H60.8574V37.6797H56.8672V49H55.2676V37.6797H51.2598V36.2734ZM71.7998 49.1758C70.8682 49.1758 70.0391 49.0176 69.3125 48.7012C68.5859 48.3848 68.0117 47.9424 67.5898 47.374C67.1738 46.7998 66.96 46.1465 66.9482 45.4141H69.6113C69.623 45.7246 69.7285 46 69.9277 46.2402C70.127 46.4746 70.3877 46.6592 70.71 46.7939C71.0322 46.9229 71.3955 46.9873 71.7998 46.9873C72.2217 46.9873 72.5996 46.9141 72.9336 46.7676C73.2676 46.6211 73.5254 46.416 73.707 46.1523C73.8887 45.8887 73.9766 45.5898 73.9707 45.2559C73.9707 44.916 73.874 44.6113 73.6807 44.3418C73.4932 44.0664 73.2148 43.8555 72.8457 43.709C72.4824 43.5566 72.0547 43.4805 71.5625 43.4805H70.376V41.5293H71.5625C71.9785 41.5293 72.3477 41.459 72.6699 41.3184C72.9922 41.1719 73.2412 40.9727 73.417 40.7207C73.5986 40.4629 73.6895 40.167 73.6895 39.833C73.6895 39.5166 73.6104 39.2354 73.4521 38.9893C73.2998 38.7373 73.083 38.5439 72.8018 38.4092C72.5205 38.2686 72.1953 38.1982 71.8262 38.1982C71.4512 38.1982 71.1084 38.2656 70.7979 38.4004C70.4873 38.5293 70.2354 38.7168 70.042 38.9629C69.8486 39.209 69.7461 39.4902 69.7344 39.8066H67.2031C67.2148 39.0918 67.4258 38.4502 67.8359 37.8818C68.2461 37.3135 68.7969 36.874 69.4883 36.5635C70.1855 36.2529 70.9648 36.0977 71.8262 36.0977C72.6992 36.0977 73.4697 36.2559 74.1377 36.5723C74.8057 36.8828 75.3213 37.3135 75.6846 37.8643C76.0537 38.4092 76.2354 39.0127 76.2295 39.6748C76.2354 40.1436 76.1387 40.5684 75.9395 40.9492C75.7402 41.3242 75.4561 41.6348 75.0869 41.8809C74.7236 42.1211 74.3018 42.2852 73.8213 42.373V42.4697C74.4365 42.5459 74.9609 42.7158 75.3945 42.9795C75.834 43.2432 76.165 43.5859 76.3877 44.0078C76.6104 44.4238 76.7188 44.8984 76.7129 45.4316C76.7188 46.1465 76.5107 46.7881 76.0889 47.3564C75.6729 47.9248 75.0898 48.3701 74.3398 48.6924C73.5898 49.0146 72.7432 49.1758 71.7998 49.1758ZM87.2949 49H85.7305L82.2148 39.4551H83.8672L86.4688 47.0312H86.5742L89.1758 39.4551H90.8281L87.2949 49ZM97.8066 41.9336C97.6953 41.5234 97.4785 41.2041 97.1562 40.9756C96.8398 40.7412 96.4121 40.6211 95.873 40.6152C95.4863 40.6152 95.1406 40.6797 94.8359 40.8086C94.5312 40.9375 94.291 41.1133 94.1152 41.3359C93.9395 41.5527 93.8516 41.793 93.8516 42.0566C93.8574 42.373 93.9922 42.6426 94.2559 42.8652C94.5195 43.082 94.9297 43.2578 95.4863 43.3926L96.9102 43.7441C97.7598 43.9434 98.3955 44.2598 98.8174 44.6934C99.2393 45.1211 99.4531 45.666 99.459 46.3281C99.4531 46.8848 99.3037 47.3799 99.0107 47.8135C98.7236 48.2412 98.2959 48.5781 97.7275 48.8242C97.165 49.0703 96.4941 49.1934 95.7148 49.1934C95.0059 49.1934 94.3906 49.0908 93.8691 48.8857C93.3535 48.6807 92.9404 48.3789 92.6299 47.9805C92.3193 47.5762 92.123 47.084 92.041 46.5039H93.623C93.7109 46.9668 93.9248 47.3125 94.2646 47.541C94.6045 47.7695 95.0762 47.8809 95.6797 47.875C96.1309 47.875 96.5234 47.8164 96.8574 47.6992C97.1973 47.582 97.4551 47.415 97.6309 47.1982C97.8066 46.9756 97.8945 46.7148 97.8945 46.416C97.8945 46.0762 97.7686 45.7949 97.5166 45.5723C97.2646 45.3496 96.8691 45.1738 96.3301 45.0449L94.8887 44.7109C94.0625 44.5176 93.4297 44.2012 92.9902 43.7617C92.5566 43.3223 92.3398 42.7832 92.3398 42.1445C92.3398 41.6055 92.4893 41.1221 92.7881 40.6943C93.0869 40.2666 93.5029 39.9326 94.0361 39.6924C94.5693 39.4521 95.1816 39.332 95.873 39.332C96.5176 39.332 97.0859 39.4404 97.5781 39.6572C98.0703 39.874 98.46 40.1787 98.7471 40.5713C99.04 40.9639 99.2188 41.418 99.2832 41.9336H97.8066ZM106.139 36.2734H113.803V37.6797H107.721V41.9336H113.223V43.3223H107.721V49H106.139V36.2734ZM124.842 40.2812C124.725 39.7129 124.493 39.2266 124.147 38.8223C123.802 38.4121 123.38 38.1016 122.882 37.8906C122.39 37.6797 121.859 37.5742 121.291 37.5742C120.512 37.5742 119.812 37.7705 119.19 38.1631C118.575 38.5557 118.089 39.1328 117.731 39.8945C117.374 40.6562 117.195 41.5703 117.195 42.6367C117.195 43.6973 117.374 44.6084 117.731 45.3701C118.089 46.126 118.575 46.7031 119.19 47.1016C119.812 47.4941 120.512 47.6934 121.291 47.6992C121.859 47.6934 122.39 47.5879 122.882 47.3828C123.38 47.1719 123.799 46.8643 124.139 46.46C124.484 46.0557 124.719 45.5723 124.842 45.0098H126.424C126.271 45.8594 125.955 46.6006 125.475 47.2334C124.994 47.8604 124.391 48.3408 123.664 48.6748C122.943 49.0088 122.152 49.1758 121.291 49.1758C120.201 49.1758 119.231 48.9092 118.382 48.376C117.532 47.8428 116.867 47.084 116.387 46.0996C115.906 45.1094 115.666 43.9551 115.666 42.6367C115.666 41.3184 115.906 40.167 116.387 39.1826C116.867 38.1924 117.532 37.4307 118.382 36.8975C119.231 36.3643 120.201 36.0977 121.291 36.0977C122.152 36.0977 122.943 36.2617 123.664 36.5898C124.391 36.918 124.994 37.3984 125.475 38.0312C125.955 38.6641 126.271 39.4141 126.424 40.2812H124.842ZM132.066 49L136.725 36.2734H138.395L143.053 49H141.383L137.604 38.3301H137.498L133.719 49H132.066ZM140.82 44.0254V45.4141H134.299V44.0254H140.82ZM144.775 36.2734H146.357V47.5938H152.264V49H144.775V36.2734ZM151.982 36.2734H161.58V37.6797H157.59V49H155.99V37.6797H151.982V36.2734ZM167.785 47.0928L172.364 42.8828C172.81 42.4492 173.158 42.0889 173.41 41.8018C173.662 41.5146 173.855 41.2275 173.99 40.9404C174.125 40.6533 174.192 40.3457 174.192 40.0176C174.192 39.6543 174.104 39.335 173.929 39.0596C173.753 38.7842 173.513 38.5732 173.208 38.4268C172.903 38.2744 172.558 38.1982 172.171 38.1982C171.772 38.1982 171.424 38.2773 171.125 38.4355C170.832 38.5938 170.604 38.8223 170.439 39.1211C170.275 39.4199 170.193 39.7715 170.193 40.1758H167.68C167.68 39.3555 167.867 38.6377 168.242 38.0225C168.617 37.4072 169.147 36.9326 169.833 36.5986C170.519 36.2646 171.307 36.0977 172.197 36.0977C173.094 36.0977 173.885 36.2559 174.57 36.5723C175.262 36.8887 175.795 37.3311 176.17 37.8994C176.545 38.4678 176.732 39.1182 176.732 39.8506C176.732 40.3545 176.636 40.8379 176.442 41.3008C176.255 41.7578 175.921 42.2705 175.44 42.8389C174.96 43.4014 174.283 44.0781 173.41 44.8691L171.468 46.7412V46.8291H176.917V49H167.794L167.785 47.0928Z" fill="white"/>
<defs>
<radialGradient id="paint0_radial_370_5728" cx="0" cy="0" r="1" gradientUnits="userSpaceOnUse" gradientTransform="translate(93 40.5) rotate(90) scale(23.5 68.2969)">
<stop stop-opacity="0"/>
<stop offset="1"/>
</radialGradient>
<radialGradient id="paint1_radial_370_5728" cx="0" cy="0" r="1" gradientUnits="userSpaceOnUse" gradientTransform="translate(93 11) scale(107 12.6559)">
<stop stop-opacity="0"/>
<stop offset="1"/>
</radialGradient>
<linearGradient id="paint2_linear_370_5728" x1="2" y1="0" x2="2" y2="64" gradientUnits="userSpaceOnUse">
<stop stop-color="#978795"/>
<stop offset="1" stop-color="#312C30"/>
</linearGradient>
<linearGradient id="paint3_linear_370_5728" x1="184" y1="0" x2="184" y2="64" gradientUnits="userSpaceOnUse">
<stop stop-color="#978795"/>
<stop offset="1" stop-color="#312C30"/>
</linearGradient>
</defs>
</svg>
