<svg width="52" height="52" viewBox="0 0 52 52" fill="none" xmlns="http://www.w3.org/2000/svg">
<circle cx="28" cy="28" r="24" fill="#18181B"/>
<circle cx="24" cy="24" r="24" fill="#FAFAFA"/>
<path d="M24 12L24.0133 26.0667C23.2267 25.6133 22.32 25.3333 21.3467 25.3333C18.3867 25.3333 16 27.72 16 30.6667C16 33.6133 18.3867 36 21.3467 36C24.3067 36 26.6667 33.6133 26.6667 30.6667V17.3333H32V12H24ZM21.3467 33.3333C19.88 33.3333 18.68 32.1333 18.68 30.6667C18.68 29.2 19.88 28 21.3467 28C22.8133 28 24.0133 29.2 24.0133 30.6667C24.0133 32.1333 22.8133 33.3333 21.3467 33.3333Z" fill="#111827"/>
</svg>
