<svg width="52" height="52" viewBox="0 0 52 52" fill="none" xmlns="http://www.w3.org/2000/svg">
<circle cx="28" cy="28" r="24" fill="#18181B"/>
<circle cx="24" cy="24" r="24" fill="#FAFAFA"/>
<path d="M26.5733 17.4259H31.9067V12.0925H23.9067V18.2392L26.5733 20.9059V17.4259ZM23.9067 22.0125L13.7867 11.9059L11.9067 13.7859L23.9067 25.7859V26.1592C22.6533 25.4392 21.1067 25.1592 19.4667 25.7325C17.68 26.3725 16.3067 27.9592 15.9867 29.8259C15.3733 33.4792 18.4667 36.5992 22.1067 36.0259C24.72 35.6125 26.5733 33.2125 26.5733 30.5592V28.4525L34.2133 36.0925L36.0933 34.2125L23.9067 22.0125ZM21.24 33.4259C19.7733 33.4259 18.5733 32.2259 18.5733 30.7592C18.5733 29.2925 19.7733 28.0925 21.24 28.0925C22.7067 28.0925 23.9067 29.2925 23.9067 30.7592C23.9067 32.2259 22.7067 33.4259 21.24 33.4259Z" fill="#18181B"/>
</svg>
