<svg width="19" height="18" viewBox="0 0 19 18" fill="none" xmlns="http://www.w3.org/2000/svg">
<path d="M15.875 5.46V3.75C15.875 2.925 15.2 2.25 14.375 2.25H3.875C3.0425 2.25 2.375 2.925 2.375 3.75V14.25C2.375 15.075 3.0425 15.75 3.875 15.75H14.375C15.2 15.75 15.875 15.075 15.875 14.25V12.54C16.3175 12.2775 16.625 11.805 16.625 11.25V6.75C16.625 6.195 16.3175 5.7225 15.875 5.46ZM15.125 6.75V11.25H9.875V6.75H15.125ZM3.875 14.25V3.75H14.375V5.25H9.875C9.05 5.25 8.375 5.925 8.375 6.75V11.25C8.375 12.075 9.05 12.75 9.875 12.75H14.375V14.25H3.875Z" fill="#18181B"/>
<path d="M12.125 10.125C12.7463 10.125 13.25 9.62132 13.25 9C13.25 8.37868 12.7463 7.875 12.125 7.875C11.5037 7.875 11 8.37868 11 9C11 9.62132 11.5037 10.125 12.125 10.125Z" fill="#18181B"/>
</svg>
