<svg width="128" height="128" viewBox="0 0 128 128" fill="none" xmlns="http://www.w3.org/2000/svg">
<path d="M64 128C99.3462 128 128 99.3462 128 64C128 28.6538 99.3462 0 64 0C28.6538 0 0 28.6538 0 64C0 99.3462 28.6538 128 64 128Z" fill="#627EEA"/>
<path d="M65.9945 15.9913V51.473L95.9825 64.8748L65.9945 15.9913Z" fill="white" fill-opacity="0.602"/>
<path d="M65.9945 15.9913L36.0066 64.8748L65.9945 51.473V15.9913Z" fill="white"/>
<path d="M65.9945 87.8644V111.974L96 70.456L65.9945 87.8644Z" fill="white" fill-opacity="0.602"/>
<path d="M65.9945 111.974V87.8644L36.0066 70.456L65.9945 111.974Z" fill="white"/>
<path d="M65.9945 82.2832L95.9825 64.8748L65.9945 51.473V82.2832Z" fill="white" fill-opacity="0.2"/>
<path d="M36.0066 64.8748L65.9945 82.2832V51.473L36.0066 64.8748Z" fill="white" fill-opacity="0.602"/>
</svg>
